<?xml version="1.0" standalone="no"?>
<!DOCTYPE svg PUBLIC "-//W3C//DTD SVG 20010904//EN"
 "http://www.w3.org/TR/2001/REC-SVG-20010904/DTD/svg10.dtd">
<svg version="1.0" xmlns="http://www.w3.org/2000/svg"
 width="204.000000pt" height="205.000000pt" viewBox="0 0 204.000000 205.000000"
 preserveAspectRatio="xMidYMid meet">

<g transform="translate(0.000000,205.000000) scale(0.100000,-0.100000)"
fill="#000000" stroke="none">
<path d="M899 2030 c-382 -48 -714 -316 -837 -675 -43 -125 -55 -219 -49 -369
12 -285 111 -505 313 -696 390 -367 998 -367 1388 0 147 139 235 289 293 500
25 93 25 377 0 470 -57 206 -145 358 -285 492 -132 125 -282 209 -453 252
-108 28 -269 39 -370 26z m366 -55 c287 -72 537 -284 653 -550 65 -150 77
-212 76 -405 0 -161 -3 -182 -28 -264 -53 -173 -160 -345 -288 -462 -115 -104
-249 -176 -415 -221 -85 -23 -117 -26 -243 -26 -126 0 -158 3 -243 26 -166 45
-300 117 -415 221 -128 117 -235 288 -288 462 -26 82 -28 102 -28 264 -1 153
2 185 22 255 66 227 185 403 366 537 239 178 540 237 831 163z"/>
<path d="M315 1278 c-3 -7 -4 -117 -3 -243 l3 -230 30 0 30 0 3 215 3 215 142
-215 c132 -199 144 -215 172 -215 27 0 40 16 172 215 l143 215 0 -217 0 -218
30 0 30 0 0 246 0 245 -47 -3 -48 -3 -138 -205 c-75 -113 -139 -205 -142 -205
-3 0 -67 92 -142 205 l-138 205 -48 3 c-32 2 -49 -1 -52 -10z"/>
<path d="M1190 1046 l0 -246 30 0 30 0 0 95 0 95 193 0 c241 0 237 2 237 -111
l0 -79 30 0 30 0 0 81 c0 74 -2 82 -27 107 l-28 27 30 26 c26 24 30 34 33 95
6 136 -14 145 -330 152 l-228 4 0 -246z m484 168 c11 -10 16 -34 16 -74 0 -89
-3 -90 -242 -90 l-198 0 0 90 0 90 204 0 c173 0 207 -2 220 -16z"/>
</g>
</svg>
